<svg xmlns="http://www.w3.org/2000/svg" viewBox="0 0 210 297">
  <path fill="#5d0101" d="M82.74 22.65c-23.14-8.98-50.2-8.25-69.02 9.74-14.84 14.16-16.2 39.15-3.63 55.1 2.8 3.54 6.58 7.23 10.7 9.18v.26c-13.34 0-25.64 14.96-16.46 27.04 4.58 6.03 12.04 7.35 19.1 7.35v.26c-4.3 1.26-8.46 5.3-11.56 8.4-16.95 18.4-13.95 50.4-2.27 67.45a82.9 82.9 0 0 0 6.25 8.14c9.23 10.5 20.28 18.9 31.98 26.43 13.3 8.55 27.6 15.46 42 21.95 3.67 1.65 7.33 3.3 11.02 4.9 1.07.47 2.75 1.83 3.92 1.73 1.67-.13 3.97-1.86 5.53-2.55 4.74-2.1 9.46-4.21 14.18-6.34 1.67-.76 4.57-2.89 6.4-2.76 2.37.16 5.2 1.7 7.5 2.35a163.63 163.63 0 0 0 16.55 3.83c16.2 2.82 32.42 3.22 48.82 3.22v-.26c-7.1-3.14-15.01-4.96-22.31-7.63-22.24-8.13-46.1-18.56-62.73-35.94-7.29-7.63-12.8-16.8-14.5-27.3a66.66 66.66 0 0 1-.73-10.5c0-3.06.57-5.48-2.36-7.23a21.96 21.96 0 0 0-7.88-2.81 23.6 23.6 0 0 0-11.02.94c-1.16.38-2.96.8-3.67 1.89-.85 6.75-1 14.31-.2 20.6.83 6.13 2.95 11.76 4.92 17.58-4.83-2.08-9.47-5.16-13.91-7.96-9.97-6.28-19.79-13.47-26.87-23.01-3.95-5.32-8.7-15.08-2-20.3 4.12-3.2 9.6-4.44 14.7-4.92 9.57-.89 19.32.68 28.34 3.97 3.78 1.38 7.8 4.58 11.6 5.43 2 .44 4.46.07 6.51.07 3.83 0 7.73.21 11.55-.01 1.72-.1 3.23-1.27 4.73-2.02a70.33 70.33 0 0 1 8.4-3.65c10.63-3.7 22.76-5.59 33.85-2.8 3.43.85 7.9 2.45 10.13 5.33 3.35 4.33 1.65 10.4-.79 14.7-4.7 8.25-11.97 14.88-19.57 20.43-2.6 1.9-5.38 4.4-8.4 5.55-1.91-6.04-5.13-11.64-6.9-17.84-.95-3.32-.43-6.67-3.34-9.1-5.03-4.2-13.66-4.34-19.68-2.75-1.79.47-5.37 1.3-6.15 3.21-2.6 12.94 2.76 27.96 11.89 39.08 15.42 17.92 39.01 28.36 60.66 36.6 8.27 3.14 17.25 7.33 25.99 8.81v-.26a405.97 405.97 0 0 1-25.2-18.69c-3.68-2.94-8.42-5.9-11.29-9.66 3.38-1.6 6.53-4.44 9.45-6.77 6.54-5.2 12.76-10.88 18.05-17.38 17.53-20.38 21.34-54.03 2.43-73.75-3.1-3.1-7.25-7.14-11.55-8.4v-.26c7.45 0 15.12-1.56 19.67-8.14 8.35-12.07-4.29-26.25-17.05-26.25v-.26c4.13-1.95 7.91-5.64 10.7-9.19 12.58-15.94 11.22-40.93-3.61-55.1-18.84-17.98-45.89-18.7-69.03-9.73.44-2.38.54-5.24-.04-7.61-4.89-20.17-40.23-20.2-43.94.79-.38 2.14-.25 4.7.14 6.82m62.74 31.84c3.8-.46 7.85.01 11.54.94 21.95 5.48 32.02 31.8 19.16 50.43-8.4 11.49-20.16 16.46-35.95 13.15-21.94-5.48-32.02-31.8-19.16-50.43a32.2 32.2 0 0 1 8.66-8.48 35.32 35.32 0 0 1 15.75-5.61m-87.93 1.57c3.55-.42 7.3.02 10.76.88 25.88 6.44 32.28 41.46 10.23 56.52-4.57 3.13-9.75 4.8-15.22 5.44-3.55.43-7.31-.01-10.76-.87-25.88-6.44-32.29-41.47-10.24-56.53 4.58-3.12 9.76-4.8 15.23-5.44"/>
</svg>