<svg xmlns="http://www.w3.org/2000/svg" viewBox="0 0 210 297">
    <path fill="#175d05" d="M83.62 22.7c-22.38-9.18-49.68-8.44-68 9.1C.06 46.72-1.43 73.6 14.08 89.14c2.46 2.46 5.13 4.98 8.3 6.49v.26c-13.72.04-23.56 14.61-17.82 27.25 2.54 5.6 7.46 9.04 13.15 10.9-5.42 5.18-9.84 9.63-12.82 16.6C2.6 155.97.84 161.73.3 167.51c-.44 4.73-.46 9.59.39 14.28 5.58 30.93 38.7 46.21 65.28 55.7 10.71 1.41 30.43 11.21 38.61 12.92 6.9-1.82 14-4.25 20.82-6.52 20.08-6.69 40.97-13.38 58.39-25.77 11.53-8.21 21.2-19 24.87-32.96 1.2-4.56 1.34-9.08 1.34-13.76 0-6.18-1.6-12.4-3.78-18.16-3.07-8.14-7.65-13.25-13.87-19.2 5.7-1.86 10.62-5.3 13.16-10.9 5.73-12.64-4.1-27.21-17.83-27.25v-.26c3.18-1.5 5.85-4.03 8.3-6.49 15.52-15.54 14.03-42.42-1.55-57.34-18.31-17.54-45.61-18.28-68-9.1 2.96-8.71-3.68-17.05-11.15-20.55-10.78-5.05-26.71-1.08-31.19 10.7-1.14 2.99-1.5 6.79-.47 9.86m-24.4 46.78c20.4-2.5 29.61 26.27 12.2 36.66a20 20 0 0 1-7.78 2.64c-20.4 2.5-29.61-26.27-12.2-36.66a20 20 0 0 1 7.79-2.64m87.19 0c17.77-2.18 30.7 18.75 19.35 33.14a20.01 20.01 0 0 1-5.6 4.97 23.15 23.15 0 0 1-8.82 3c-17.76 2.19-30.7-18.74-19.34-33.14a20.01 20.01 0 0 1 5.59-4.96 23.16 23.16 0 0 1 8.82-3m-96.8 91.34c4.19-.5 8.79.78 12.72 2.09 8.83 2.94 17.08 7.52 24.65 12.92 3 2.15 5.95 4.34 8.83 6.66 1.68 1.36 3.4 3.07 5.7 3.13 1.28.04 2.43-.89 3.64-.8 1.83.13 2.98 1.18 4.93.51 4.61-1.58 8.94-6.74 12.97-9.53 7.5-5.18 15.46-9.83 24.14-12.72 6.37-2.13 14.17-3.94 20.24.03a8.11 8.11 0 0 1 3.42 4.38c3.07 8.12-1.45 13.8-7.83 18.6-14.07 7.18-42.78 23.25-57.87 24.15-19.54-5.7-46.18-14.58-59.69-25.38-2.71-2.24-5.6-4.89-6.82-8.28-2.93-8.13 3.2-14.83 10.97-15.76"/>
</svg>